<?xml version="1.0" encoding="UTF-8"?>
<svg version="1.1" xmlns="http://www.w3.org/2000/svg" width="768" height="768">
<path d="M0 0 C253.44 0 506.88 0 768 0 C768 253.44 768 506.88 768 768 C514.56 768 261.12 768 0 768 C0 514.56 0 261.12 0 0 Z " fill="#8060EB" transform="translate(0,0)"/>
<path d="M0 0 C4.13672262 3.53501751 8.10794602 7.19858289 12 11 C12.8559375 11.83015625 13.711875 12.6603125 14.59375 13.515625 C29.20133103 28.58547126 37.90653594 47.88059178 43 68 C43.19126465 68.72952881 43.3825293 69.45905762 43.57958984 70.21069336 C45.22346546 77.24867285 45.30572642 84.18951292 45.26074219 91.39477539 C45.25003521 93.43080544 45.26068643 95.46594996 45.2734375 97.50195312 C45.25830503 105.23842829 44.70409979 112.4543247 43 120 C42.80019531 121.02351562 42.60039063 122.04703125 42.39453125 123.1015625 C35.3203266 153.7722753 16.25830216 180.8473994 -10 198 C-20.41192457 204.49406053 -31.30345728 208.94679577 -43.04785156 212.42138672 C-44.8398012 212.95251736 -46.61990049 213.52320924 -48.3984375 214.09765625 C-78.58921734 221.66172365 -112.41591606 215.24185305 -138.875 199.625 C-169.87156308 180.5880585 -186.89973618 151.31379215 -195.45703125 116.7734375 C-201.40690431 86.38199955 -194.51022119 53.79932102 -177.64013672 27.98950195 C-173.4695162 21.93158283 -168.49226021 16.62229656 -163.35009766 11.38525391 C-162.19392398 10.19897372 -161.06826823 8.98308132 -159.94921875 7.76171875 C-118.72614457 -36.28606286 -45.66678462 -36.55872785 0 0 Z " fill="#0D0D0D" transform="translate(650,261)"/>
<path d="M0 0 C0.89976562 0.40734375 1.79953125 0.8146875 2.7265625 1.234375 C32.09973634 15.02969147 53.22380784 40.6009527 64.25683594 70.78271484 C73.04985808 97.01734925 72.07733732 125.04142745 63 151 C62.64164063 152.05574219 62.28328125 153.11148438 61.9140625 154.19921875 C51.78168249 182.3862759 29.80302557 206.27096995 2.93383789 219.3503418 C-3.54464389 222.37723201 -10.2036266 224.78042489 -17 227 C-17.87398437 227.33257812 -18.74796875 227.66515625 -19.6484375 228.0078125 C-29.89964055 231.04255093 -40.31668347 231.44222077 -50.9375 231.4375 C-51.66066406 231.43823517 -52.38382812 231.43897034 -53.12890625 231.43972778 C-65.61845459 231.40651456 -77.14516041 230.09025137 -89 226 C-89.75120117 225.74299316 -90.50240234 225.48598633 -91.27636719 225.22119141 C-107.5735229 219.45238075 -121.29356378 210.62070602 -134 199 C-134.81082031 198.27167969 -135.62164062 197.54335938 -136.45703125 196.79296875 C-159.9001202 174.66367813 -171.52188111 142.55701275 -172.47021484 110.85375977 C-172.75744512 81.52566557 -162.88787281 54.37261213 -144 32 C-143.22011719 31.05640625 -142.44023437 30.1128125 -141.63671875 29.140625 C-132.7637002 18.8589603 -121.95911893 10.42494662 -110 4 C-109.11441406 3.51144531 -108.22882813 3.02289063 -107.31640625 2.51953125 C-74.07136869 -15.02771381 -34.02296568 -16.48894583 0 0 Z " fill="#0D0D0D" transform="translate(245,246)"/>
<path d="M0 0 C1.83118084 1.83118084 1.12645259 4.38767045 1.13552856 6.8248291 C1.13249222 8.07942932 1.13249222 8.07942932 1.12939453 9.359375 C1.13202301 10.67391663 1.13202301 10.67391663 1.13470459 12.01501465 C1.13912432 14.92669627 1.13618469 17.8383177 1.1328125 20.75 C1.1334855 22.76399752 1.1344555 24.77799495 1.13571167 26.79199219 C1.13718881 31.01888805 1.13503358 35.24576283 1.13037109 39.47265625 C1.1246738 44.90380532 1.12795272 50.33490499 1.13394356 55.76605225 C1.13754874 59.92659887 1.13641078 64.08713369 1.13381577 68.24768066 C1.13314638 70.25085455 1.13397533 72.25402949 1.13629532 74.25720215 C1.13882115 77.05170552 1.13498224 79.84612771 1.12939453 82.640625 C1.13141876 83.47702515 1.13344299 84.31342529 1.13552856 85.1751709 C1.11426242 90.88573758 1.11426242 90.88573758 0 92 C-2.92194665 92.09525367 -5.82020329 92.12552736 -8.74243164 92.11352539 C-10.11790413 92.11374443 -10.11790413 92.11374443 -11.52116394 92.1139679 C-14.56751836 92.1132684 -17.61381245 92.10547428 -20.66015625 92.09765625 C-22.76622993 92.0957922 -24.87230403 92.09436824 -26.9783783 92.09336853 C-32.53342883 92.08954231 -38.08845341 92.07971114 -43.64349365 92.06866455 C-49.3072474 92.05845267 -54.97100533 92.05387139 -60.63476562 92.04882812 C-71.75652185 92.03808896 -82.87825877 92.0210113 -94 92 C-94.03064168 89.63661826 -94.05282062 87.27364282 -94.0703125 84.91015625 C-94.08336426 83.594104 -94.09641602 82.27805176 -94.10986328 80.92211914 C-93.53734044 60.48305358 -81.57492934 40.32287062 -67.24609375 26.28125 C-48.79054042 9.32834088 -25.3102507 -1.51368676 0 0 Z " fill="#FCFCFC" transform="translate(576,263)"/>
<path d="M0 0 C1.83118084 1.83118084 1.12645259 4.38767045 1.13552856 6.8248291 C1.13249222 8.07942932 1.13249222 8.07942932 1.12939453 9.359375 C1.13202301 10.67391663 1.13202301 10.67391663 1.13470459 12.01501465 C1.13912432 14.92669627 1.13618469 17.8383177 1.1328125 20.75 C1.1334855 22.76399752 1.1344555 24.77799495 1.13571167 26.79199219 C1.13718881 31.01888805 1.13503358 35.24576283 1.13037109 39.47265625 C1.1246738 44.90380532 1.12795272 50.33490499 1.13394356 55.76605225 C1.13754874 59.92659887 1.13641078 64.08713369 1.13381577 68.24768066 C1.13314638 70.25085455 1.13397533 72.25402949 1.13629532 74.25720215 C1.13882115 77.05170552 1.13498224 79.84612771 1.12939453 82.640625 C1.13141876 83.47702515 1.13344299 84.31342529 1.13552856 85.1751709 C1.11426242 90.88573758 1.11426242 90.88573758 0 92 C-2.89143151 92.09523905 -5.75892064 92.12553027 -8.65063477 92.11352539 C-10.0114769 92.11374443 -10.0114769 92.11374443 -11.39981079 92.1139679 C-14.41369985 92.11326841 -17.42752793 92.10547434 -20.44140625 92.09765625 C-22.52505967 92.0957922 -24.60871354 92.09436824 -26.69236755 92.09336853 C-32.18823446 92.08954234 -37.68407513 92.0797112 -43.17993164 92.06866455 C-48.78336227 92.0584526 -54.38679713 92.05387137 -59.99023438 92.04882812 C-70.99350114 92.03808902 -81.99674839 92.02101139 -93 92 C-93.01874272 89.95836912 -93.03197812 87.91668732 -93.04296875 85.875 C-93.05094482 84.73804688 -93.0589209 83.60109375 -93.06713867 82.4296875 C-92.61295409 59.22828749 -79.23072021 38.33606668 -63.0234375 22.60546875 C-45.3355388 7.36279636 -23.34566075 -1.29530763 0 0 Z " fill="#FBFBFB" transform="translate(195,263)"/>
<path d="M0 0 C23.04338286 -0.0466652 46.08675797 -0.0819619 69.13017845 -0.10362434 C79.82898918 -0.11394872 90.52777059 -0.12803118 101.2265625 -0.15087891 C110.54870517 -0.17077729 119.87082663 -0.18370798 129.19298995 -0.18817699 C134.13164052 -0.19079041 139.07023038 -0.19695705 144.00886154 -0.21146011 C148.65284014 -0.22498799 153.29673272 -0.22923241 157.94072914 -0.22621536 C159.64920455 -0.22676768 161.3576827 -0.23077358 163.06614113 -0.23841095 C165.39083021 -0.24829734 167.71519048 -0.24599222 170.03988647 -0.24050903 C171.99500939 -0.24327441 171.99500939 -0.24327441 173.98962975 -0.24609566 C177 0 177 0 179 2 C179.22705078 4.98095703 179.22705078 4.98095703 179.1953125 8.7578125 C179.1924826 9.42086395 179.18965271 10.08391541 179.18673706 10.76705933 C179.17553435 12.88655583 179.15043051 15.00563104 179.125 17.125 C179.11497028 18.56119182 179.10584441 19.99739025 179.09765625 21.43359375 C179.075595 24.95586628 179.04106494 28.47789203 179 32 C176.04056973 33.47971513 173.39533345 33.12602055 170.09130859 33.12698364 C169.37230566 33.12854363 168.65330273 33.13010362 167.91251183 33.13171089 C165.49113318 33.13571554 163.06981667 33.1325333 160.6484375 33.12939453 C158.91741906 33.13074881 157.1864009 33.13252889 155.4553833 33.13470459 C150.74476672 33.13927577 146.03417197 33.13749065 141.32355499 33.1343255 C136.40238891 33.13180029 131.48122475 33.1341399 126.56005859 33.13571167 C118.29459293 33.13753289 110.02913619 33.1351283 101.76367188 33.13037109 C92.19677961 33.12492857 82.62990864 33.12669126 73.06301689 33.1321975 C64.86088821 33.13672998 56.65876596 33.13737851 48.45663643 33.13475883 C43.5526914 33.1331968 38.6487564 33.13300027 33.74481201 33.13629532 C29.13529204 33.13917598 24.52579964 33.13719472 19.91628265 33.13140106 C18.22071122 33.13007452 16.52513748 33.1304658 14.82956696 33.13266373 C12.5225767 33.13537935 10.2156759 33.13198901 7.90869141 33.12698364 C5.96852646 33.1264181 5.96852646 33.1264181 3.98916626 33.12584114 C1 33 1 33 -1 32 C-1.02469321 27.7641643 -1.04285671 23.52836658 -1.05493164 19.29248047 C-1.05996474 17.8510668 -1.06679173 16.40965824 -1.07543945 14.96826172 C-1.08754983 12.89809915 -1.09323847 10.82800399 -1.09765625 8.7578125 C-1.10289307 7.5114502 -1.10812988 6.26508789 -1.11352539 4.98095703 C-1 2 -1 2 0 0 Z " fill="#0E0E0F" transform="translate(295,469)"/>
<path d="M0 0 C2.1640625 0.0234375 2.1640625 0.0234375 4.625 0.375 C5.85089844 0.54128906 5.85089844 0.54128906 7.1015625 0.7109375 C7.72804687 0.80632812 8.35453125 0.90171875 9 1 C7.68 1.33 6.36 1.66 5 2 C5 2.66 5 3.32 5 4 C3.1875 4.6875 3.1875 4.6875 1 5 C-0.75 3.5625 -0.75 3.5625 -2 2 C-1.34 1.34 -0.68 0.68 0 0 Z " fill="#755BD4" transform="translate(165,474)"/>
<path d="M0 0 C3 4 3 4 3.07421875 6.140625 C2.71614583 8.09375 2.35807292 10.046875 2 12 C1.67 12 1.34 12 1 12 C0.67 8.04 0.34 4.08 0 0 Z " fill="#8168E0" transform="translate(72,330)"/>
</svg>
